<?xml version="1.0" encoding="UTF-8"?>
<svg version="1.1" xmlns="http://www.w3.org/2000/svg" width="512" height="512">
<path d="M0 0 C0.99660645 0.19335938 1.99321289 0.38671875 3.02001953 0.5859375 C49.47365335 9.76476193 92.27640218 30.69306284 127 63 C128.39160821 64.2131969 129.78727188 65.42176214 131.1875 66.625 C137.65718811 72.27623359 143.48510243 78.41972449 149 85 C149.42410156 85.50499023 149.84820312 86.00998047 150.28515625 86.53027344 C162.55286827 101.23273332 173.13262709 117.02708256 182 134 C182.59095459 135.11689209 182.59095459 135.11689209 183.19384766 136.25634766 C194.72239556 158.31274906 202.50044698 182.55056543 207 207 C207.16081055 207.80066895 207.32162109 208.60133789 207.48730469 209.42626953 C212.9794441 237.50412453 212.73396692 270.98977935 207 299 C206.80664062 299.99660645 206.61328125 300.99321289 206.4140625 302.02001953 C198.47427489 342.20294157 181.8327458 380.10665992 156 412 C155.29746094 412.89460938 154.59492188 413.78921875 153.87109375 414.7109375 C131.81362352 442.41479514 104.3006232 464.5476448 73 481 C72.25105469 481.39687012 71.50210937 481.79374023 70.73046875 482.20263672 C48.67880409 493.72673427 24.44303189 501.5016253 0 506 C-0.80066895 506.16081055 -1.60133789 506.32162109 -2.42626953 506.48730469 C-30.50412453 511.9794441 -63.98977935 511.73396692 -92 506 C-93.49490967 505.70996094 -93.49490967 505.70996094 -95.02001953 505.4140625 C-135.20294157 497.47427489 -173.10665992 480.8327458 -205 455 C-205.89460938 454.29746094 -206.78921875 453.59492188 -207.7109375 452.87109375 C-235.41479514 430.81362352 -257.5476448 403.3006232 -274 372 C-274.39687012 371.25105469 -274.79374023 370.50210937 -275.20263672 369.73046875 C-286.72673427 347.67880409 -294.5016253 323.44303189 -299 299 C-299.24121582 297.79899658 -299.24121582 297.79899658 -299.48730469 296.57373047 C-304.9794441 268.49587547 -304.73396692 235.01022065 -299 207 C-298.70996094 205.50509033 -298.70996094 205.50509033 -298.4140625 203.97998047 C-289.23478744 157.52406603 -268.30554139 114.72686402 -236 80 C-234.80778787 78.6290837 -233.62008001 77.25423376 -232.4375 75.875 C-226.41738238 69.00076958 -219.96227821 62.98465851 -212.828125 57.2734375 C-211.02615055 55.82488898 -209.24248128 54.35305078 -207.484375 52.8515625 C-194.55811998 41.86821084 -180.01113241 32.84245309 -165 25 C-164.25540527 24.60603027 -163.51081055 24.21206055 -162.74365234 23.80615234 C-140.68725094 12.27760444 -116.44943457 4.49955302 -92 0 C-91.19933105 -0.16081055 -90.39866211 -0.32162109 -89.57373047 -0.48730469 C-61.49587547 -5.9794441 -28.01022065 -5.73396692 0 0 Z " fill="#006BA2" transform="translate(302,3)"/>
<path d="M0 0 C10.26554545 7.84132043 16.10884525 16.37427471 19 29 C19.60605823 34.89617195 19.38207295 40.83412848 19.25 46.75 C19.22988417 48.33331049 19.21164247 49.91664594 19.1953125 51.5 C19.15176453 55.33396332 19.08302723 59.16669681 19 63 C19.61198242 62.98694824 20.22396484 62.97389648 20.85449219 62.96044922 C21.66047852 62.95029785 22.46646484 62.94014648 23.296875 62.9296875 C24.09448242 62.91663574 24.89208984 62.90358398 25.71386719 62.89013672 C29.77229058 63.08516988 32.61129925 64.58871875 35.44140625 67.46484375 C39.43376718 72.11691104 40.12725248 74.49813089 40.16113281 80.54174805 C40.16609772 81.21354599 40.17106262 81.88534393 40.17617798 82.57749939 C40.19081095 84.80558288 40.19760515 87.03359505 40.203125 89.26171875 C40.20887765 90.8115082 40.21463537 92.36129763 40.22039795 93.91108704 C40.23091262 97.16525606 40.23675153 100.41940036 40.24023438 103.67358398 C40.24570545 107.83190181 40.26970146 111.98988993 40.29820633 116.14810467 C40.31688926 119.35241122 40.32204141 122.55663946 40.32357025 125.76099586 C40.32658701 127.29311733 40.33458241 128.82523773 40.34775543 130.35730553 C40.36492711 132.50887963 40.36290868 134.65966333 40.35644531 136.8112793 C40.36191376 138.64422798 40.36191376 138.64422798 40.36749268 140.51420593 C39.82087069 145.69910296 38.42992752 149.6434021 34.5625 153.3125 C30.78944413 155.79719533 28.14864068 157.24731718 23.57987976 157.26742554 C22.26157669 157.28022049 22.26157669 157.28022049 20.91664124 157.29327393 C19.48196754 157.29191437 19.48196754 157.29191437 18.01831055 157.29052734 C17.00484558 157.29724457 15.99138062 157.30396179 14.94720459 157.31088257 C11.59365955 157.32989494 8.24031434 157.33378854 4.88671875 157.3359375 C2.5550783 157.34236358 0.22343867 157.3490918 -2.10820007 157.35610962 C-6.99817779 157.36809079 -11.88808481 157.37178961 -16.77807617 157.37060547 C-23.03938104 157.37040233 -29.30023175 157.39769586 -35.56142902 157.43214989 C-40.37847468 157.45440541 -45.19541086 157.4584434 -50.01250267 157.45738602 C-52.32054394 157.45974433 -54.62858812 157.46858075 -56.93657875 157.48405075 C-60.16808325 157.50368101 -63.39860611 157.49788345 -66.63012695 157.48583984 C-67.58050339 157.49707886 -68.53087982 157.50831787 -69.51005554 157.51989746 C-75.53774168 157.46291052 -79.05864646 156.50764254 -84 153 C-88.45926088 148.18869221 -89.12502774 144.77353349 -89.16113281 138.32885742 C-89.16609772 137.65530716 -89.17106262 136.9817569 -89.17617798 136.28779602 C-89.19077789 134.06034318 -89.19759834 131.83296158 -89.203125 129.60546875 C-89.20887874 128.05471292 -89.21463644 126.5039571 -89.22039795 124.95320129 C-89.2309021 121.70081247 -89.23674843 118.44844832 -89.24023438 115.19604492 C-89.24571449 111.03653691 -89.26973442 106.877357 -89.29820633 102.71795177 C-89.31686789 99.51368774 -89.3220402 96.30950215 -89.32357025 93.10518837 C-89.32658994 91.57224041 -89.33459538 90.0392936 -89.34775543 88.50639915 C-89.36488838 86.35712405 -89.36291844 84.20864263 -89.35644531 82.05932617 C-89.36191376 80.22757088 -89.36191376 80.22757088 -89.36749268 78.35881042 C-88.88909049 73.98630898 -87.47686715 70.61916946 -84.5 67.35546875 C-80.31696779 64.09836815 -77.5683998 62.86132754 -72.3125 62.9375 C-71.50425781 62.94652344 -70.69601562 62.95554687 -69.86328125 62.96484375 C-69.24839844 62.97644531 -68.63351562 62.98804688 -68 63 C-68.01571045 62.0527002 -68.0314209 61.10540039 -68.04760742 60.12939453 C-68.09914501 56.56960427 -68.13654675 53.01021817 -68.16479492 49.45019531 C-68.17975744 47.91790457 -68.20013497 46.38565571 -68.22631836 44.85351562 C-68.47381642 29.9842203 -66.34624594 16.53348033 -55.75 5.1875 C-40.0317462 -9.24975074 -18.11325563 -11.41079712 0 0 Z " fill="#FCFDFD" transform="translate(344,206)"/>
<path d="M0 0 C2.40061366 0.00851109 4.79883807 -0.02036637 7.19921875 -0.05200195 C17.29283004 -0.09720496 26.5072468 0.8840016 36.03515625 4.44604492 C37.02515625 5.43604492 37.02515625 5.43604492 38.03515625 6.44604492 C37.63683594 6.87014648 37.23851562 7.29424805 36.828125 7.73120117 C36.29832031 8.31772461 35.76851563 8.90424805 35.22265625 9.50854492 C34.70058594 10.07702148 34.17851562 10.64549805 33.640625 11.23120117 C29.74982174 16.59880567 28.65931893 21.31129103 28.64697266 27.875 C28.6417157 28.58172348 28.63645874 29.28844696 28.63104248 30.0165863 C28.61793148 32.3331469 28.62655123 34.64900959 28.63671875 36.96557617 C28.63469477 38.59071483 28.63178064 40.21585259 28.62802124 41.84098816 C28.62360935 45.24108559 28.62998962 48.64094587 28.64404297 52.04101562 C28.66109328 56.37494057 28.65131305 60.70830634 28.63332558 65.04221058 C28.6224218 68.39764015 28.6259648 71.75293989 28.63370895 75.10837364 C28.63569493 76.70498408 28.63330872 78.30160673 28.62627029 79.8982029 C28.61855085 82.14208237 28.63040529 84.38509074 28.64697266 86.62890625 C28.65055283 88.53583 28.65055283 88.53583 28.65420532 90.48127747 C29.12609762 95.39252213 30.46922415 99.78511839 32.03515625 104.44604492 C18.37004093 104.58524278 4.70509509 104.69176719 -8.96058559 104.75691795 C-15.30657992 104.7881918 -21.65208814 104.83059435 -27.99780273 104.89868164 C-34.12513551 104.96401217 -40.25200157 104.99978065 -46.37965584 105.01530838 C-48.71401374 105.02636993 -51.04834692 105.04797088 -53.38250542 105.08042526 C-56.65977466 105.12416857 -59.93513092 105.12997127 -63.21264648 105.12719727 C-64.17146729 105.14876892 -65.13028809 105.17034058 -66.11816406 105.19256592 C-73.09870282 105.12889551 -77.7519356 103.12989308 -82.96484375 98.44604492 C-89.21322052 90.28261287 -88.97169542 80.17257694 -87.69677734 70.38891602 C-84.01561728 49.12982615 -71.09013371 28.57500157 -53.640625 15.96557617 C-37.04439737 4.59039656 -19.96122696 -0.10751474 0 0 Z " fill="#FEFEFE" transform="translate(215.96484375,257.553955078125)"/>
<path d="M0 0 C8.83244613 7.07154706 14.45465811 16.09382363 17.46875 26.9765625 C17.65561022 29.62832882 17.7558579 32.14370935 17.71875 34.7890625 C17.71053223 35.49901367 17.70231445 36.20896484 17.69384766 36.94042969 C17.42876558 49.39643682 13.54702985 60.00533201 4.96875 69.2890625 C-5.13896196 78.78418586 -16.52983267 82.29191464 -30.2265625 82.12109375 C-42.21274384 81.59687542 -53.27772532 76.89535869 -61.53125 67.9765625 C-63.83771537 65.12337942 -65.72281815 62.16615934 -67.53125 58.9765625 C-68.26601562 57.73519531 -68.26601562 57.73519531 -69.015625 56.46875 C-74.23442348 46.17774851 -74.34367807 33.32611191 -71.609375 22.23828125 C-66.67419895 9.62794504 -57.25112926 -0.43550871 -44.92578125 -6.05859375 C-29.77916097 -12.16171807 -13.32066631 -9.20693112 0 0 Z " fill="#FDFEFE" transform="translate(246.53125,158.0234375)"/>
<path d="M0 0 C4.78618187 2.86141626 8.03839768 7.57679537 10.5 12.5 C10.58648525 14.98073173 10.61572486 17.43368278 10.59765625 19.9140625 C10.59664917 20.56076904 10.59564209 21.20747559 10.59460449 21.8737793 C10.58937024 24.29087089 10.57540898 26.70793721 10.5625 29.125 C10.541875 34.52875 10.52125 39.9325 10.5 45.5 C-3.69 45.5 -17.88 45.5 -32.5 45.5 C-32.62375 40.42625 -32.7475 35.3525 -32.875 30.125 C-32.92962402 28.54541504 -32.98424805 26.96583008 -33.04052734 25.33837891 C-33.14198456 16.71015176 -32.33378021 10.28322317 -26.5 3.5 C-19.55163691 -3.1849842 -8.75159159 -3.75308639 0 0 Z " fill="#005E98" transform="translate(330.5,223.5)"/>
</svg>
